<svg width="41" height="40" viewBox="0 0 41 40" fill="none" xmlns="http://www.w3.org/2000/svg">
<path d="M20.6478 6.3761C22.843 6.3803 25.104 7.7803 25.104 11.6359C25.104 15.4915 24.39 17.2415 22.997 17.5621C22.9256 19.0265 23.6354 20.6715 26.4214 20.8773C28.3492 21.0201 31.0316 21.1069 31.3144 24.7385C31.4936 27.0233 30.6354 31.1295 30.7432 33.4493C30.8272 35.2637 31.2374 39.1277 31.565 41.2571C31.67 41.9389 31.1436 42.5549 30.4534 42.5591C29.3614 42.5661 28.5312 42.5759 28.5312 42.5759L28.6362 45.6237H12.476C12.476 45.6237 12.714 42.9455 12.8568 42.4821C12.4326 42.5059 11.559 42.4359 10.7876 42.3855C10.1632 42.3449 9.69976 41.7961 9.76136 41.1731C9.95596 39.2257 10.6714 35.5815 10.6434 33.9127C10.607 31.7707 9.57236 25.4511 10.1786 23.7739C10.7862 22.0953 12.1428 20.6673 14.499 20.8815C16.8552 21.0957 18.1768 19.0251 18.2482 17.5607C17.5342 17.4179 16.3918 16.2391 16.3204 14.3827C16.249 12.5263 16.3204 10.7413 16.3568 9.7767C16.3932 8.8121 17.9276 6.3677 20.6478 6.3733V6.3761Z" fill="#C0D1FC"/>
<path d="M13.0478 26C12.905 28.9512 14.9042 32.9734 14.7376 35.1868C14.571 37.4002 12.4766 42.0272 12.4766 45.6238" stroke="#E3ECFF" stroke-width="0.1008" stroke-miterlimit="10"/>
<path d="M28.1497 26C28.1497 30.5668 26.5509 32.9692 26.6531 35.1868C26.7931 38.2416 28.8161 40.3598 28.6383 45.6238" stroke="#E3ECFF" stroke-width="0.1008" stroke-miterlimit="10"/>
<path d="M20.668 14.5605V15.7183" stroke="#2E4A68" stroke-width="0.7042" stroke-linecap="round" stroke-linejoin="round"/>
<path d="M20.668 17.8506V42.3618" stroke="#2E4A68" stroke-width="0.7042" stroke-linecap="round" stroke-linejoin="round" stroke-dasharray="2.13 2.13"/>
<path opacity="0.5" d="M26.6508 23.6396C28.0836 23.6396 29.245 22.4781 29.245 21.0454C29.245 19.6126 28.0836 18.4512 26.6508 18.4512C25.2181 18.4512 24.0566 19.6126 24.0566 21.0454C24.0566 22.4781 25.2181 23.6396 26.6508 23.6396Z" fill="#2E4A68"/>
<path opacity="0.7" d="M26.6513 22.7337C27.5838 22.7337 28.3397 21.9778 28.3397 21.0453C28.3397 20.1129 27.5838 19.3569 26.6513 19.3569C25.7188 19.3569 24.9629 20.1129 24.9629 21.0453C24.9629 21.9778 25.7188 22.7337 26.6513 22.7337Z" fill="#2E4A68"/>
<path d="M26.6504 21.7622C27.0463 21.7622 27.3672 21.4413 27.3672 21.0454C27.3672 20.6495 27.0463 20.3286 26.6504 20.3286C26.2545 20.3286 25.9336 20.6495 25.9336 21.0454C25.9336 21.4413 26.2545 21.7622 26.6504 21.7622Z" fill="#2E4A68"/>
<path opacity="0.5" d="M20.6684 34.6967C22.1012 34.6967 23.2626 33.5352 23.2626 32.1025C23.2626 30.6698 22.1012 29.5083 20.6684 29.5083C19.2357 29.5083 18.0742 30.6698 18.0742 32.1025C18.0742 33.5352 19.2357 34.6967 20.6684 34.6967Z" fill="#2E4A68"/>
<path opacity="0.7" d="M20.6689 33.7911C21.6013 33.7911 22.3573 33.0352 22.3573 32.1027C22.3573 31.1702 21.6013 30.4143 20.6689 30.4143C19.7364 30.4143 18.9805 31.1702 18.9805 32.1027C18.9805 33.0352 19.7364 33.7911 20.6689 33.7911Z" fill="#2E4A68"/>
<path d="M20.668 32.8193C21.0638 32.8193 21.3848 32.4984 21.3848 32.1025C21.3848 31.7067 21.0638 31.3857 20.668 31.3857C20.2721 31.3857 19.9512 31.7067 19.9512 32.1025C19.9512 32.4984 20.2721 32.8193 20.668 32.8193Z" fill="#2E4A68"/>
<path opacity="0.5" d="M13.7837 23.6396C15.2164 23.6396 16.3779 22.4781 16.3779 21.0454C16.3779 19.6126 15.2164 18.4512 13.7837 18.4512C12.3509 18.4512 11.1895 19.6126 11.1895 21.0454C11.1895 22.4781 12.3509 23.6396 13.7837 23.6396Z" fill="#2E4A68"/>
<path opacity="0.7" d="M13.7841 22.7337C14.7166 22.7337 15.4725 21.9778 15.4725 21.0453C15.4725 20.1129 14.7166 19.3569 13.7841 19.3569C12.8516 19.3569 12.0957 20.1129 12.0957 21.0453C12.0957 21.9778 12.8516 22.7337 13.7841 22.7337Z" fill="#2E4A68"/>
<path d="M13.7832 21.7622C14.1791 21.7622 14.5 21.4413 14.5 21.0454C14.5 20.6495 14.1791 20.3286 13.7832 20.3286C13.3873 20.3286 13.0664 20.6495 13.0664 21.0454C13.0664 21.4413 13.3873 21.7622 13.7832 21.7622Z" fill="#2E4A68"/>
</svg>
