<svg width="40" height="40" viewBox="0 0 40 40" fill="none" xmlns="http://www.w3.org/2000/svg">
<path d="M21.0279 5.69596C22.2577 5.68166 24.7745 6.70216 24.5704 9.92746C24.5496 10.2629 24.4183 11.0741 24.3676 11.2366C24.469 11.195 24.8057 11.39 24.6809 12.0075C24.6237 12.2909 24.547 12.4781 24.4703 12.8005C24.352 13.2984 23.8853 13.8665 23.4953 13.8756C23.4823 13.9601 23.2327 14.9923 23.3081 15.4122C23.3835 15.8321 23.845 16.4184 24.287 16.7486C24.729 17.0788 25.4921 17.7873 25.9588 18.4633C26.0108 18.5387 26.3033 18.5413 26.7271 18.813C27.1509 19.0847 28.8266 20.0987 28.9813 20.2001C29.2491 20.3743 29.8224 20.9203 30.1708 21.5235C30.5192 22.1267 31.1757 23.3448 31.3746 23.7686C31.6294 24.312 31.6333 25.0543 31.7477 25.8616C31.8621 26.6689 32.0792 26.9042 32.2144 27.4892C32.3496 28.0755 32.5927 29.8682 32.8644 30.3986C33.1361 30.929 33.5755 32.4006 33.6028 32.8101C33.6405 33.3678 33.5495 34.4403 33.5859 34.6184C33.6691 35.0201 33.6756 35.9548 33.6054 36.6555C33.5352 37.3562 33.3233 38.8577 33.2869 39.3361C33.2362 40.0173 32.5108 42.0037 32.542 42.2013C32.3314 42.2013 29.7717 42.1987 29.6079 42.2013C29.6755 41.1522 29.4766 39.0319 29.4935 38.5782C29.5312 37.5421 29.9706 36.1862 29.9134 35.6259C29.8562 35.0656 29.3258 33.1507 29.0541 32.2849C28.7824 31.4191 27.9816 29.4756 27.9075 29.2338C27.7164 29.8708 27.1054 31.7961 26.9845 33.191C26.8636 34.5859 26.8324 36.2668 26.8428 37.1066C26.8597 38.5067 27.1912 39.1359 27.1405 39.6702C27.0898 40.2045 27.1834 41.81 27.1574 42.2078C26.6062 42.2078 14.3901 42.2169 13.1291 42.1909C13.3709 41.5162 14.0196 39.314 14.0716 36.9961C14.1028 35.5635 14.3771 34.7289 14.225 33.7175C14.1548 34.01 13.4502 35.8274 13.3904 37.2106C13.3306 38.5938 12.1996 41.7905 11.8941 42.1974C11.2324 42.1974 8.47247 42.2065 7.94727 42.2065C7.99017 41.5526 8.03437 39.5753 8.10847 38.5821C8.27877 36.2902 8.82346 35.4309 8.91446 34.4312C9.08216 32.5982 9.83357 30.5351 9.89727 29.3248C9.96097 28.1145 10.1651 26.4349 9.98696 25.5938C9.80886 24.754 9.61777 22.8937 10.1521 21.7107C10.6864 20.5264 11.5015 19.3837 14.0079 18.7311C16.0138 18.2085 16.8666 18.2176 17.8793 17.6482C17.9638 17.6001 18.1822 17.2751 18.1887 17.1763C18.1952 17.0775 18.1744 17.0112 18.1757 16.9254C18.1094 16.9059 17.7727 16.8448 17.5335 16.2013C17.2943 15.5578 17.1487 14.8961 17.0616 14.4515C16.9043 13.6559 16.6833 13.3751 16.6118 12.7563C16.5403 12.1375 16.786 11.2769 16.8159 11.0442C16.7483 10.9038 16.7093 10.3734 16.9472 10.0419C16.9511 9.57126 17.1084 8.48836 17.397 8.02946C17.6856 7.57056 18.6398 5.72066 21.0292 5.69336L21.0279 5.69596Z" fill="#C0D1FC"/>
<path d="M15.0663 25.3064C15.1066 26.2255 15.1664 27.1589 15.0572 28.0754L15.0169 28.6279C14.9961 28.9984 14.9077 29.3611 14.8258 29.7225C14.6295 30.7677 14.4813 31.9442 14.3305 33.0037C14.2798 33.369 14.2291 33.7356 14.1875 34.1022C14.3058 32.6293 14.4774 31.1603 14.7322 29.703C14.8102 29.3442 14.9064 28.9893 14.9285 28.6201L14.9727 28.0689C15.091 27.1524 15.0624 26.2294 15.0676 25.3064H15.0663Z" fill="white"/>
<path opacity="0.36" d="M21.9254 17.7056C23.2683 17.5275 23.9209 16.9126 23.9872 16.4927C24.4656 16.9594 24.7412 16.9711 25.9853 18.4765C28.1342 18.9718 29.3627 20.3797 29.6643 20.8503C30.1401 21.5913 31.4037 23.5829 31.5948 24.2667C31.7001 24.6424 31.9107 25.984 32.0186 26.5989C30.7901 27.0188 28.2317 27.4725 27.8508 27.5388C28.4098 28.7725 26.816 33.0989 26.9824 35.2894C27.1488 37.4799 27.4634 40.6935 27.0981 42.3211H12.9476C13.1777 42.091 13.9265 38.3717 14.0591 35.5338C14.1917 32.6959 14.7338 30.1791 14.9834 28.6191C14.2034 28.6529 10.9014 28.3201 9.93812 28.4527C10.0382 26.6275 9.91082 25.4159 9.76132 24.8686C9.61182 24.3213 9.33492 21.6667 11.3707 19.9845C13.1179 18.5402 15.48 18.3088 16.8294 18.0423C18.0657 17.5275 18.0839 17.5028 18.158 17.2701C18.4479 17.4118 19.7063 18.0033 21.9254 17.7082V17.7056Z" fill="#E3ECFF"/>
<path d="M26.7362 18.8051C26.8818 18.8545 27.0885 19.134 26.9637 19.7437C27.0001 19.7879 27.0352 19.8256 27.0352 19.8256C27.0352 19.8256 26.9351 21.2257 24.8213 21.5832C22.7075 21.9407 20.0022 20.4249 18.6073 19.056C18.6073 19.056 18.6489 18.913 18.5254 18.8896C18.4903 18.9039 18.476 18.926 18.476 18.926C18.476 18.926 17.0174 18.1291 16.3388 18.1616C16.1646 18.1707 15.785 18.2682 15.4054 18.3566C15.0258 18.445 14.2107 18.5074 13.9286 18.7518C14.3654 18.6946 14.8386 18.5958 15.4041 18.9741C15.9683 19.3524 17.4685 20.7018 17.6856 20.9527C17.9027 21.2036 19.5316 23.0119 19.2014 25.0997C18.8699 27.1875 17.0109 27.1628 16.0177 28.1638C15.304 28.0026 15.148 27.8414 15.0531 27.7556C15.0622 27.9532 14.9582 29.2259 14.8685 29.4352C15.0154 29.4859 15.8877 30.0085 16.0398 30.0592C16.0333 30.1931 16.1984 32.4811 16.1815 33.4574C16.1646 34.4337 16.2153 35.3671 16.2153 35.5283C15.8591 35.5452 14.6241 35.553 14.0885 35.41C14.0404 35.553 13.8064 37.4172 13.8415 38.0516C13.9884 38.1634 14.3407 38.2206 14.7281 38.2336C15.1155 38.2466 16.4688 38.3259 16.6989 38.2752C16.864 38.2622 20.9746 38.3961 22.0952 38.3896C23.2158 38.3831 26.8025 38.0334 26.8831 38.0243C26.9338 38.0789 27.0547 38.0893 27.0456 38.0035C27.0365 37.9177 26.8922 36.8855 26.9026 36.4409C26.913 35.9963 26.9026 35.5452 26.8948 35.5023C26.887 35.4594 26.8506 35.4854 26.8337 35.4516C26.8363 35.3684 26.9234 33.7395 26.9871 33.1974C27.0508 32.6553 27.433 30.6715 27.5448 30.3686C27.6085 30.3881 27.68 30.4115 27.7086 30.4115C27.7372 30.4115 28.1779 28.754 28.2286 28.5889C28.2793 28.4238 28.122 28.377 28.0869 28.3536C28.0726 28.4407 28.0297 28.5707 28.0297 28.5707C28.0297 28.5707 27.8958 27.9389 27.8074 27.6204C27.719 27.3019 27.5526 26.3854 27.6488 25.4936C27.745 24.6018 28.3469 22.4204 28.6953 21.7665C28.7551 21.8172 28.9332 21.7275 28.8669 21.5676C28.8825 21.3752 29.0281 20.6485 28.85 20.1662C28.6719 19.6839 28.5042 19.6436 28.3911 19.5799C28.278 19.5162 26.9442 18.8194 26.8779 18.8077C26.8142 18.796 26.7635 18.8077 26.7375 18.809L26.7362 18.8051Z" fill="#2E4A68"/>
</svg>
