<svg width="447" height="43" viewBox="0 0 447 43" fill="none" xmlns="http://www.w3.org/2000/svg">
<rect width="43" height="43" rx="6" fill="white"></rect>
<path d="M22.2207 23.9528L29.4154 11.4899L33.3346 13.7524C35.8646 15.2127 36.7332 18.4503 35.2706 20.9802L31.2188 27.9974C30.3053 29.5784 28.2841 30.1204 26.7008 29.2092L23.0633 27.1099C21.9604 26.4686 21.5817 25.0557 22.2207 23.9528Z" fill="url(#paint0_linear_1855_244)"></path>
<path d="M21.5456 15.3003L12.5948 30.802L16.5141 33.0646C19.044 34.5248 22.2817 33.6586 23.7419 31.1286L29.5474 21.0726C30.4609 19.4917 29.9189 17.4682 28.3356 16.5546L24.698 14.4554C23.5952 13.8164 22.1846 14.195 21.5456 15.3003Z" fill="#FDBD00"></path>
<path d="M29.507 11.4875L26.7333 9.88763C23.5714 8.06056 19.5267 9.1445 17.6996 12.3087L12.5545 21.2169C11.641 22.7979 12.1829 24.8214 13.7662 25.7349L16.54 27.3348C18.1209 28.2483 20.1444 27.7063 21.058 26.123L27.1995 15.4848C28.4751 13.2743 31.3009 12.5194 33.5091 13.795L29.507 11.4875Z" fill="#2DA94F"></path>
<path d="M18.5073 14.9192L15.4472 13.156C14.084 12.3703 12.3398 12.8365 11.5517 14.1973L7.8786 20.5424C6.07046 23.6664 7.14256 27.6614 10.2737 29.4648L12.6049 30.8067L15.4307 32.4349L16.6566 33.1402C14.4793 31.6823 13.7882 28.7619 15.1183 26.4638L16.0697 24.8213L19.5511 18.8053C20.3392 17.4468 19.8729 15.7049 18.5073 14.9192Z" fill="url(#paint1_linear_1855_244)"></path>
<rect x="51" width="43" height="43" rx="6" fill="white"></rect>
<path d="M72.0909 34.1818C79.3208 34.1818 85.1818 28.3208 85.1818 21.0909C85.1818 13.861 79.3208 8 72.0909 8C64.861 8 59 13.861 59 21.0909C59 28.3208 64.861 34.1818 72.0909 34.1818Z" fill="#5F259F"></path>
<path d="M78.0323 17.6745C78.0323 17.1625 77.5935 16.7237 77.0816 16.7237H75.3264L71.304 12.1163C70.9384 11.6775 70.3533 11.5313 69.7682 11.6775L68.3787 12.1163C68.1593 12.1895 68.0861 12.482 68.2324 12.6283L72.6204 16.7969H65.9653C65.7459 16.7969 65.5996 16.9431 65.5996 17.1625V17.8939C65.5996 18.4058 66.0384 18.8446 66.5503 18.8446H67.5742V22.355C67.5742 24.9878 68.9638 26.5236 71.304 26.5236C72.0354 26.5236 72.6204 26.4505 73.3518 26.158V28.4982C73.3518 29.1564 73.8637 29.6684 74.5219 29.6684H75.5458C75.7652 29.6684 75.9846 29.449 75.9846 29.2296V18.7715H77.6666C77.886 18.7715 78.0323 18.6252 78.0323 18.4058V17.6745ZM73.3518 23.964C72.913 24.1834 72.3279 24.2565 71.8891 24.2565C70.719 24.2565 70.1339 23.6714 70.1339 22.355V18.8446H73.3518V23.964Z" fill="white"></path>
<rect x="102" width="43" height="43" rx="6" fill="white"></rect>
<path d="M126.438 8.00002L133.33 21.7052L118.842 35.4088L126.438 8.00002Z" fill="#008C44"></path>
<path d="M121.608 8.00002L128.494 21.7052L114 35.4088L121.608 8.00002Z" fill="#F47920"></path>
<rect x="153" width="64" height="43" rx="6" fill="white"></rect>
<path d="M208.838 18.7733C208.402 17.5276 207.215 16.633 205.82 16.633H205.791C204.884 16.633 204.067 17.0104 203.486 17.6161C202.903 17.0104 202.086 16.633 201.18 16.633H201.151C200.354 16.633 199.626 16.9248 199.066 17.4078V17.1623C199.047 16.9178 198.846 16.7256 198.597 16.7256H196.458C196.196 16.7256 195.985 16.9369 195.985 17.1996V28.8167C195.985 29.0793 196.196 29.2906 196.458 29.2906H198.597C198.836 29.2906 199.032 29.1125 199.063 28.8821L199.062 20.5423C199.062 20.5131 199.063 20.486 199.066 20.4588C199.1 20.0865 199.373 19.7806 199.804 19.7423H199.883H200.108H200.198C200.378 19.7584 200.53 19.8218 200.65 19.9174C200.836 20.0653 200.94 20.2928 200.94 20.5423L200.948 28.8408C200.948 29.1035 201.16 29.3158 201.421 29.3158H203.56C203.813 29.3158 204.018 29.1145 204.03 28.864L204.029 20.5312C204.028 20.2575 204.155 20.01 204.377 19.8631C204.487 19.7927 204.619 19.7454 204.771 19.7313H204.85H205.075H205.165C205.628 19.7715 205.908 20.1227 205.907 20.5312L205.915 28.8187C205.915 29.0813 206.127 29.2927 206.388 29.2927H208.527C208.788 29.2927 209 29.0813 209 28.8187V19.9054C209 19.2976 208.932 19.039 208.838 18.7733Z" fill="#54C1F0"></path>
<path d="M194.355 16.756H193.132V14.7737C193.132 14.7716 193.132 14.7696 193.132 14.7676C193.132 14.5291 192.939 14.3359 192.7 14.3359C192.672 14.3359 192.645 14.34 192.619 14.345C191.262 14.7173 191.534 16.596 189.057 16.756H189.002H188.817C188.781 16.756 188.747 16.761 188.713 16.768C188.502 16.8153 188.343 17.0035 188.343 17.2289V19.3682C188.343 19.6288 188.555 19.8411 188.817 19.8411H190.108L190.106 28.9125C190.106 29.1711 190.315 29.3804 190.574 29.3804H192.689C192.947 29.3804 193.156 29.1711 193.156 28.9125L193.157 19.8411H194.355C194.616 19.8411 194.828 19.6288 194.828 19.3682V17.2289C194.828 16.9683 194.616 16.756 194.355 16.756Z" fill="#54C1F0"></path>
<path d="M186.659 16.7559H184.519C184.259 16.7559 184.047 16.9682 184.047 17.2288V21.6523C184.042 21.926 183.821 22.1454 183.546 22.1454H182.651C182.373 22.1454 182.149 21.922 182.149 21.6443L182.141 17.2288C182.141 16.9682 181.928 16.7559 181.668 16.7559H179.528C179.267 16.7559 179.055 16.9682 179.055 17.2288V22.0769C179.055 23.9184 180.369 25.2315 182.211 25.2315C182.211 25.2315 183.594 25.2315 183.636 25.2396C183.885 25.2678 184.08 25.4771 184.08 25.7347C184.08 25.9892 183.889 26.1975 183.643 26.2287C183.631 26.2307 183.62 26.2338 183.607 26.2358L180.478 26.2468C180.217 26.2468 180.005 26.4592 180.005 26.7198V28.8581C180.005 29.1197 180.217 29.331 180.478 29.331H183.976C185.819 29.331 187.132 28.0188 187.132 26.1764V17.2288C187.132 16.9682 186.92 16.7559 186.659 16.7559Z" fill="#233266"></path>
<path d="M165.952 20.6757V21.6739V21.9959C165.952 22.2726 165.727 22.498 165.451 22.498L164.093 22.499V19.8536H165.451C165.727 19.8536 165.952 20.077 165.952 20.3547V20.6757ZM166.14 16.7554H161.464C161.207 16.7554 161 16.9637 161 17.2192V19.3153C161 19.3193 161.001 19.3233 161.001 19.3273C161.001 19.3374 161 19.3475 161 19.3565V26.0793V28.8434C161 29.101 161.193 29.3113 161.433 29.3174H161.473H163.612C163.873 29.3174 164.085 29.1061 164.085 28.8444L164.093 25.5933H166.14C167.853 25.5933 169.046 24.4049 169.046 22.6852V19.6675C169.046 17.9478 167.853 16.7554 166.14 16.7554Z" fill="#233266"></path>
<path d="M174.828 25.6981V26.0322C174.828 26.0594 174.824 26.0855 174.82 26.1107C174.815 26.1349 174.808 26.158 174.8 26.1801C174.733 26.3673 174.546 26.5031 174.324 26.5031H173.433C173.156 26.5031 172.929 26.2918 172.929 26.0322V25.6287C172.929 25.6237 172.928 25.6186 172.928 25.6136L172.929 24.5399V24.5379V24.4192V24.2039L172.93 24.2008C172.931 23.9422 173.156 23.7329 173.433 23.7329H174.324C174.603 23.7329 174.828 23.9432 174.828 24.2039V25.6981ZM174.488 16.7677H171.519C171.257 16.7677 171.044 16.9669 171.044 17.2114V18.0436C171.044 18.0486 171.045 18.0547 171.045 18.0597C171.045 18.0657 171.044 18.0718 171.044 18.0778V19.2179C171.044 19.4765 171.27 19.6878 171.548 19.6878H174.374C174.598 19.723 174.775 19.886 174.8 20.1406V20.4163C174.775 20.6588 174.6 20.8359 174.386 20.8561H172.987C171.125 20.8561 169.799 22.0928 169.799 23.8295V26.2536V26.317C169.799 28.0437 170.939 29.2723 172.787 29.2723H176.666C177.363 29.2723 177.927 28.7451 177.927 28.096V19.9786C177.927 18.0104 176.913 16.7677 174.488 16.7677Z" fill="#233266"></path>
<rect x="225" width="76" height="43" rx="6" fill="white"></rect>
<path d="M259.1 29.2673H254.969L257.553 13.2896H261.684L259.1 29.2673Z" fill="#00579F"></path>
<path d="M274.077 13.6802C273.262 13.357 271.969 13 270.371 13C266.291 13 263.418 15.1756 263.401 18.286C263.367 20.5809 265.458 21.8555 267.021 22.6207C268.62 23.4026 269.163 23.9129 269.163 24.6099C269.147 25.6803 267.871 26.1737 266.682 26.1737C265.033 26.1737 264.149 25.9193 262.806 25.3238L262.262 25.0685L261.684 28.6552C262.653 29.0966 264.438 29.4884 266.291 29.5055C270.626 29.5055 273.448 27.3636 273.482 24.049C273.498 22.2301 272.394 20.8364 270.014 19.6976C268.569 18.9665 267.684 18.4735 267.684 17.7255C267.701 17.0455 268.432 16.349 270.064 16.349C271.407 16.3149 272.393 16.6377 273.141 16.9608L273.515 17.1305L274.077 13.6802Z" fill="#00579F"></path>
<path d="M279.567 23.607C279.908 22.6891 281.217 19.1365 281.217 19.1365C281.2 19.1706 281.556 18.2017 281.76 17.6068L282.049 18.9836C282.049 18.9836 282.831 22.8081 283.001 23.607C282.356 23.607 280.383 23.607 279.567 23.607ZM284.667 13.2896H281.471C280.486 13.2896 279.737 13.5783 279.312 14.6152L273.176 29.2671H277.51C277.51 29.2671 278.224 27.2951 278.378 26.8704C278.853 26.8704 283.07 26.8704 283.682 26.8704C283.8 27.4313 284.175 29.2671 284.175 29.2671H288L284.667 13.2896Z" fill="#00579F"></path>
<path d="M251.518 13.2896L247.472 24.1849L247.03 21.9752C246.282 19.4255 243.936 16.6553 241.318 15.2779L245.024 29.2504H249.393L255.887 13.2896H251.518Z" fill="#00579F"></path>
<path d="M243.715 13.2896H237.068L237 13.6124C242.185 14.9383 245.619 18.1344 247.03 21.9759L245.585 14.6326C245.347 13.6122 244.616 13.3232 243.715 13.2896Z" fill="#FAA61A"></path>
<rect x="309" width="76" height="43" rx="6" fill="white"></rect>
<path d="M376.276 15.2748L380 22.6684L372.172 30.0656L376.276 15.2748Z" fill="#008C44"></path>
<path d="M373.698 15.2748L377.416 22.6684L369.594 30.0656L373.698 15.2748Z" fill="#F47920"></path>
<path d="M314 27.3754L317.713 14H323.648C325.503 14 326.742 14.2937 327.372 14.8988C327.998 15.4991 328.119 16.4789 327.742 17.8561C327.513 18.6674 327.167 19.3484 326.69 19.8865C326.218 20.4255 325.594 20.8517 324.827 21.1651C325.478 21.3217 325.892 21.6325 326.078 22.0986C326.263 22.5647 326.241 23.2444 326.017 24.1354L325.565 26.0037L325.564 26.0542C325.434 26.5774 325.472 26.8574 325.685 26.8801L325.548 27.3754H321.533C321.546 27.0606 321.571 26.7793 321.598 26.543C321.627 26.3012 321.663 26.1139 321.699 25.9852L322.073 24.6495C322.262 23.9549 322.273 23.4703 322.098 23.1912C321.922 22.9047 321.526 22.7637 320.902 22.7637H319.215L317.928 27.3754H314ZM320.049 19.7497H321.857C322.49 19.7497 322.958 19.6592 323.246 19.4722C323.535 19.2836 323.75 18.965 323.876 18.5041C324.007 18.0354 323.975 17.7087 323.787 17.5229C323.6 17.3343 323.153 17.2426 322.449 17.2426H320.745L320.049 19.7497Z" fill="#1B3281"></path>
<path d="M338.761 17.5054L336.024 27.3753H332.699L333.107 25.9294C332.522 26.5044 331.923 26.941 331.319 27.22C330.72 27.504 330.088 27.6437 329.423 27.6437C328.873 27.6437 328.4 27.5438 328.02 27.3458C327.635 27.1484 327.349 26.8483 327.156 26.4525C326.985 26.106 326.91 25.6782 326.94 25.167C326.97 24.664 327.148 23.8154 327.477 22.6272L328.896 17.5054H332.534L331.118 22.6032C330.911 23.3493 330.862 23.8738 330.963 24.1593C331.068 24.4475 331.348 24.5963 331.803 24.5963C332.262 24.5963 332.647 24.4303 332.965 24.0916C333.288 23.7558 333.537 23.255 333.725 22.5886L335.129 17.5054H338.761Z" fill="#1B3281"></path>
<path d="M337.441 27.3754L341.15 14H346.252C347.377 14 348.249 14.0665 348.87 14.2123C349.49 14.352 349.976 14.5789 350.338 14.8988C350.79 15.3173 351.068 15.8352 351.182 16.4566C351.289 17.0779 351.226 17.8017 350.991 18.6515C350.575 20.1467 349.847 21.2925 348.809 22.0931C347.768 22.8833 346.48 23.2804 344.943 23.2804H342.555L341.421 27.3754H337.441ZM343.459 20.0138H344.742C345.571 20.0138 346.155 19.9114 346.496 19.7137C346.827 19.5134 347.062 19.1575 347.205 18.6515C347.348 18.1388 347.311 17.7803 347.095 17.58C346.886 17.3807 346.354 17.2798 345.502 17.2798H344.221L343.459 20.0138Z" fill="#1B3281"></path>
<path d="M355.271 27.3753L355.308 26.438C354.721 26.8771 354.127 27.2091 353.529 27.4165C352.935 27.6278 352.301 27.7351 351.623 27.7351C350.592 27.7351 349.874 27.4551 349.458 26.9131C349.048 26.3702 348.981 25.5907 349.261 24.5963C349.529 23.6148 350.005 22.8924 350.693 22.4305C351.377 21.9631 352.519 21.6286 354.122 21.4147C354.325 21.3816 354.597 21.355 354.938 21.3139C356.123 21.1768 356.788 20.8611 356.931 20.346C357.006 20.064 356.961 19.856 356.786 19.7283C356.617 19.5957 356.301 19.5305 355.845 19.5305C355.467 19.5305 355.163 19.609 354.913 19.772C354.664 19.9367 354.478 20.1772 354.352 20.5156H350.805C351.125 19.4044 351.779 18.565 352.762 18.0036C353.741 17.4325 355.031 17.1576 356.63 17.1576C357.382 17.1576 358.055 17.228 358.65 17.3806C359.246 17.5268 359.682 17.7352 359.964 17.9874C360.312 18.3021 360.518 18.6609 360.576 19.0576C360.644 19.4534 360.57 20.0206 360.363 20.7629L358.837 26.2655C358.788 26.4457 358.779 26.6065 358.805 26.7527C358.837 26.8921 358.898 27.0113 359.005 27.0966L358.923 27.3753H355.271ZM356.155 22.9682C355.768 23.1235 355.266 23.2722 354.642 23.4356C353.663 23.6985 353.111 24.0492 352.992 24.4832C352.909 24.7622 352.943 24.9771 353.079 25.1405C353.214 25.2957 353.447 25.3742 353.777 25.3742C354.381 25.3742 354.865 25.2215 355.227 24.9201C355.589 24.6148 355.86 24.1354 356.05 23.4742C356.083 23.3335 356.112 23.2324 356.131 23.1568L356.155 22.9682Z" fill="#1B3281"></path>
<path d="M358.951 31.2645L359.759 28.3431H360.8C361.147 28.3431 361.421 28.2744 361.615 28.1493C361.812 28.0193 361.945 27.8002 362.023 27.5053C362.061 27.3753 362.085 27.2385 362.101 27.0833C362.111 26.9186 362.111 26.7446 362.101 26.5429L361.545 17.5054H365.228L365.171 23.4939L368.385 17.5054H371.81L366.127 27.3277C365.482 28.4255 365.013 29.1797 364.715 29.5913C364.422 29.9978 364.143 30.3138 363.872 30.5277C363.522 30.8237 363.13 31.0334 362.707 31.1556C362.284 31.2804 361.639 31.3426 360.772 31.3426C360.522 31.3426 360.235 31.3377 359.925 31.3215C359.616 31.3095 359.287 31.2911 358.951 31.2645Z" fill="#1B3281"></path>
<rect x="393" width="54" height="43" rx="6" fill="white"></rect>
<path d="M424.842 14.3853H416.385V29.5799H424.842V14.3853Z" fill="#FF5A00"></path>
<path d="M416.948 21.9826C416.948 18.8955 418.399 16.1556 420.626 14.3853C418.987 13.0967 416.92 12.3179 414.665 12.3179C409.323 12.3179 405 16.6404 405 21.9826C405 27.3248 409.323 31.6474 414.665 31.6474C416.92 31.6474 418.987 30.8686 420.626 29.5799C418.396 27.8346 416.948 25.0697 416.948 21.9826Z" fill="#EB001B"></path>
<path d="M436.252 21.9826C436.252 27.3248 431.93 31.6474 426.588 31.6474C424.333 31.6474 422.265 30.8686 420.626 29.5799C422.881 27.8065 424.304 25.0697 424.304 21.9826C424.304 18.8955 422.853 16.1556 420.626 14.3853C422.262 13.0967 424.329 12.3179 426.585 12.3179C431.93 12.3179 436.252 16.6686 436.252 21.9826Z" fill="#F79E1B"></path>
<defs>
<linearGradient id="paint0_linear_1855_244" x1="35.981" y1="20.5706" x2="25.3641" y2="17.6385" gradientUnits="userSpaceOnUse">
<stop stop-color="#EB4434"></stop>
<stop offset="1" stop-color="#DC3026"></stop>
</linearGradient>
<linearGradient id="paint1_linear_1855_244" x1="7" y1="22.9573" x2="19.9342" y2="22.9573" gradientUnits="userSpaceOnUse">
<stop stop-color="#4085FA"></stop>
<stop offset="1" stop-color="#2175E9"></stop>
</linearGradient>
</defs>
</svg>
