<svg width="41" height="40" viewBox="0 0 41 40" fill="none" xmlns="http://www.w3.org/2000/svg">
<path d="M20.1264 4.94106C23.4625 4.81148 24.4991 7.65118 24.479 8.98526C24.459 10.3193 24.479 13.4802 24.459 14.035C24.4389 14.5898 24.3568 16.8875 22.2215 16.6411C20.0863 16.3948 16.5768 15.0607 16.2884 11.4472C16.0019 7.83368 16.794 5.07063 20.1264 4.93923V4.94106Z" fill="#C0D1FC"/>
<path d="M18.4465 16.3324C18.7166 16.524 21.1329 17.3635 21.5946 17.5442C21.83 17.6373 21.4778 18.9129 21.7899 19.8528C22.3575 21.5628 28.1591 25.2877 27.9967 29.6111C27.9018 32.1424 27.2302 33.9911 26.9163 39.8201C26.7247 43.3643 26.6298 44.1034 26.356 44.0359C26.0823 43.9684 25.6041 41.6616 24.5365 40.1286C23.4689 38.5956 22.4286 37.0352 22.4286 35.6117C22.4286 34.1882 22.3739 27.6474 22.3465 26.6071C22.3191 25.5669 21.518 23.1707 20.6912 22.802C20.3226 22.6378 20.0616 23.1579 20.6511 24.0467C21.2387 24.9354 21.6092 26.9758 21.6366 28.0982C21.664 29.2205 21.6913 34.8853 21.7187 35.7887C21.7461 36.6921 22.4268 38.2707 22.9506 38.9916C24.2646 40.7983 25.3596 43.9994 25.7702 45.6693C26.1808 47.3391 26.5641 51.1424 27.0021 51.9089C27.4401 52.6754 29.6009 55.7907 27.6591 56.0152C25.2775 56.2889 26.3725 54.7012 25.4143 53.0587C24.4562 51.4162 21.226 46.1073 20.5963 44.848C19.9667 43.5888 19.2458 41.8313 19.0086 41.3312C18.8863 41.0721 17.9957 41.2217 18.4337 42.1525C18.8717 43.0832 20.9796 47.2698 21.664 48.3922C22.3483 49.5145 25.4417 53.9475 25.4143 56.0827C22.8958 56.0827 16.6288 56.1375 15.9444 56.028C15.26 55.9185 13.9679 53.3854 14.5483 49.7883C14.8622 47.841 17.6143 43.7129 17.012 39.3602C16.4098 35.0076 14.8202 31.5182 15.2053 26.2221C15.4717 22.5483 17.8734 20.8839 17.9355 18.5242C17.9665 17.3635 17.9665 16.8197 17.9464 16.5331C17.9264 16.2466 18.1381 16.1097 18.452 16.3306L18.4465 16.3324Z" fill="#C0D1FC"/>
<path d="M14.4618 17.2815C14.4618 17.6027 14.2647 18.1447 13.9727 18.8419" stroke="#2E4A68" stroke-width="2.0075" stroke-linecap="round" stroke-linejoin="round"/>
<path d="M12.589 22.176C11.9302 23.9609 11.3918 25.9812 11.5724 27.8591C11.9064 31.3412 14.1183 36.7176 13.4066 41.7017" stroke="#2E4A68" stroke-width="2.0075" stroke-linecap="round" stroke-linejoin="round" stroke-dasharray="3.61 3.61"/>
</svg>
